<svg width="190" height="34" viewBox="0 0 190 34" fill="none" xmlns="http://www.w3.org/2000/svg">
<path d="M11.9863 5.96191L5.41211 26H0.116211L9.09766 1.82812H12.4678L11.9863 5.96191ZM17.4482 26L10.8574 5.96191L10.3262 1.82812H13.7295L22.7607 26H17.4482ZM17.1494 17.002V20.9033H4.38281V17.002H17.1494ZM28.8535 11.8721V26H24.0723V8.03711H28.5547L28.8535 11.8721ZM28.1562 16.3877H26.8613C26.8613 15.0596 27.0329 13.8643 27.376 12.8018C27.7191 11.7282 28.2005 10.8151 28.8203 10.0625C29.4401 9.29883 30.1761 8.71777 31.0283 8.31934C31.8916 7.90983 32.8545 7.70508 33.917 7.70508C34.7581 7.70508 35.5273 7.82682 36.2246 8.07031C36.9219 8.3138 37.5195 8.70117 38.0176 9.23242C38.5267 9.76367 38.9141 10.4665 39.1797 11.3408C39.4564 12.2152 39.5947 13.2832 39.5947 14.5449V26H34.7803V14.5283C34.7803 13.7314 34.6696 13.1117 34.4482 12.6689C34.2269 12.2262 33.9004 11.9163 33.4688 11.7393C33.0482 11.5511 32.528 11.457 31.9082 11.457C31.2663 11.457 30.7074 11.5843 30.2314 11.8389C29.7666 12.0934 29.3792 12.4476 29.0693 12.9014C28.7705 13.3441 28.5436 13.8643 28.3887 14.4619C28.2337 15.0596 28.1562 15.7015 28.1562 16.3877ZM54.6025 8.03711H58.9355V25.4023C58.9355 27.0404 58.5703 28.4294 57.8398 29.5693C57.1204 30.7204 56.1133 31.5892 54.8184 32.1758C53.5234 32.7734 52.0182 33.0723 50.3027 33.0723C49.5501 33.0723 48.7533 32.9727 47.9121 32.7734C47.082 32.5742 46.2852 32.2643 45.5215 31.8438C44.7689 31.4232 44.138 30.8919 43.6289 30.25L45.7373 27.4277C46.2907 28.0697 46.9326 28.5677 47.6631 28.9219C48.3936 29.2871 49.2015 29.4697 50.0869 29.4697C50.9502 29.4697 51.6807 29.3092 52.2783 28.9883C52.876 28.6784 53.3353 28.2191 53.6562 27.6104C53.9772 27.0127 54.1377 26.2878 54.1377 25.4355V12.1875L54.6025 8.03711ZM42.5166 17.2344V16.8857C42.5166 15.5133 42.6826 14.2682 43.0146 13.1504C43.3577 12.0215 43.8392 11.0531 44.459 10.2451C45.0898 9.43717 45.8535 8.81185 46.75 8.36914C47.6465 7.92643 48.6592 7.70508 49.7881 7.70508C50.9834 7.70508 51.985 7.92643 52.793 8.36914C53.6009 8.81185 54.265 9.44271 54.7852 10.2617C55.3053 11.0697 55.7093 12.027 55.9971 13.1338C56.2959 14.2295 56.5283 15.4303 56.6943 16.7363V17.5C56.5283 18.7507 56.2793 19.9128 55.9473 20.9863C55.6152 22.0599 55.1781 23.0007 54.6357 23.8086C54.0934 24.6055 53.4183 25.2253 52.6104 25.668C51.8135 26.1107 50.8617 26.332 49.7549 26.332C48.6481 26.332 47.6465 26.1051 46.75 25.6514C45.8646 25.1976 45.1064 24.5612 44.4756 23.7422C43.8447 22.9232 43.3577 21.9603 43.0146 20.8535C42.6826 19.7467 42.5166 18.5404 42.5166 17.2344ZM47.2979 16.8857V17.2344C47.2979 17.9759 47.3698 18.6676 47.5137 19.3096C47.6576 19.9515 47.8789 20.5215 48.1777 21.0195C48.4876 21.5065 48.8695 21.8883 49.3232 22.165C49.7881 22.4307 50.3359 22.5635 50.9668 22.5635C51.8411 22.5635 52.555 22.3809 53.1084 22.0156C53.6618 21.6393 54.0768 21.1247 54.3535 20.4717C54.6302 19.8187 54.7907 19.0661 54.835 18.2139V16.0391C54.8128 15.3418 54.7188 14.7165 54.5527 14.1631C54.3867 13.5986 54.1543 13.1172 53.8555 12.7188C53.5566 12.3203 53.1693 12.0104 52.6934 11.7891C52.2174 11.5677 51.653 11.457 51 11.457C50.3691 11.457 49.8213 11.6009 49.3564 11.8887C48.9027 12.1654 48.5208 12.5472 48.2109 13.0342C47.9121 13.5212 47.6852 14.0967 47.5303 14.7607C47.3753 15.4137 47.2979 16.1221 47.2979 16.8857ZM73.2793 21.7002V8.03711H78.0605V26H73.5615L73.2793 21.7002ZM73.8105 18.0146L75.2217 17.9814C75.2217 19.1768 75.0833 20.2891 74.8066 21.3184C74.5299 22.3366 74.1149 23.222 73.5615 23.9746C73.0081 24.7161 72.3109 25.2972 71.4697 25.7178C70.6286 26.1273 69.638 26.332 68.498 26.332C67.6237 26.332 66.8158 26.2103 66.0742 25.9668C65.3438 25.7122 64.7129 25.3193 64.1816 24.7881C63.6615 24.2458 63.252 23.554 62.9531 22.7129C62.6654 21.8607 62.5215 20.8369 62.5215 19.6416V8.03711H67.3027V19.6748C67.3027 20.2061 67.3636 20.6543 67.4854 21.0195C67.6182 21.3848 67.8008 21.6836 68.0332 21.916C68.2656 22.1484 68.5368 22.3145 68.8467 22.4141C69.1676 22.5137 69.5218 22.5635 69.9092 22.5635C70.8942 22.5635 71.6689 22.3643 72.2334 21.9658C72.8089 21.5674 73.2129 21.0251 73.4453 20.3389C73.6888 19.6416 73.8105 18.8669 73.8105 18.0146ZM86.7598 0.5V26H81.9619V0.5H86.7598ZM100.406 21.9492V13.9473C100.406 13.3717 100.312 12.8792 100.124 12.4697C99.9359 12.0492 99.6426 11.7227 99.2441 11.4902C98.8568 11.2578 98.3532 11.1416 97.7334 11.1416C97.2021 11.1416 96.7428 11.2357 96.3555 11.4238C95.9681 11.6009 95.6693 11.861 95.459 12.2041C95.2487 12.5361 95.1436 12.929 95.1436 13.3828H90.3623C90.3623 12.6191 90.5394 11.8942 90.8936 11.208C91.2477 10.5218 91.7624 9.91862 92.4375 9.39844C93.1126 8.86719 93.915 8.45215 94.8447 8.15332C95.7855 7.85449 96.8369 7.70508 97.999 7.70508C99.3936 7.70508 100.633 7.9375 101.718 8.40234C102.802 8.86719 103.655 9.56445 104.274 10.4941C104.905 11.4238 105.221 12.5859 105.221 13.9805V21.667C105.221 22.652 105.282 23.46 105.403 24.0908C105.525 24.7106 105.702 25.2529 105.935 25.7178V26H101.104C100.871 25.513 100.694 24.9043 100.572 24.1738C100.462 23.4323 100.406 22.6908 100.406 21.9492ZM101.037 15.0596L101.07 17.7656H98.3975C97.7666 17.7656 97.2188 17.8376 96.7539 17.9814C96.2891 18.1253 95.9072 18.3301 95.6084 18.5957C95.3096 18.8503 95.0882 19.1491 94.9443 19.4922C94.8115 19.8353 94.7451 20.2116 94.7451 20.6211C94.7451 21.0306 94.8392 21.4014 95.0273 21.7334C95.2155 22.0544 95.4867 22.3089 95.8408 22.4971C96.195 22.6742 96.61 22.7627 97.0859 22.7627C97.8053 22.7627 98.4307 22.6188 98.9619 22.3311C99.4932 22.0433 99.9027 21.6891 100.19 21.2686C100.489 20.848 100.644 20.4495 100.655 20.0732L101.917 22.0986C101.74 22.5524 101.496 23.0228 101.187 23.5098C100.888 23.9967 100.506 24.4561 100.041 24.8877C99.5762 25.3083 99.0173 25.6569 98.3643 25.9336C97.7113 26.1992 96.9365 26.332 96.04 26.332C94.9001 26.332 93.8652 26.1051 92.9355 25.6514C92.0169 25.1865 91.2865 24.5501 90.7441 23.7422C90.2129 22.9232 89.9473 21.9935 89.9473 20.9531C89.9473 20.0124 90.1243 19.1768 90.4785 18.4463C90.8327 17.7158 91.3529 17.1016 92.0391 16.6035C92.7363 16.0944 93.6051 15.7126 94.6455 15.458C95.6859 15.1924 96.8923 15.0596 98.2646 15.0596H101.037ZM113.688 11.9551V26H108.906V8.03711H113.405L113.688 11.9551ZM119.1 7.9209L119.017 12.3535C118.784 12.3203 118.502 12.2926 118.17 12.2705C117.849 12.2373 117.556 12.2207 117.29 12.2207C116.615 12.2207 116.028 12.3092 115.53 12.4863C115.043 12.6523 114.634 12.9014 114.302 13.2334C113.981 13.5654 113.737 13.9694 113.571 14.4453C113.416 14.9212 113.328 15.4635 113.306 16.0723L112.343 15.7734C112.343 14.6113 112.459 13.5433 112.691 12.5693C112.924 11.5843 113.261 10.7266 113.704 9.99609C114.158 9.26562 114.711 8.70117 115.364 8.30273C116.017 7.9043 116.764 7.70508 117.605 7.70508C117.871 7.70508 118.142 7.72721 118.419 7.77148C118.696 7.80469 118.923 7.85449 119.1 7.9209Z" fill="white"/>
<path d="M137.195 22.1152V26H125.026V22.1152H137.195ZM126.637 1.82812V26H121.656V1.82812H126.637ZM145.347 1.82812V26H140.383V1.82812H145.347ZM162.596 19.6748C162.596 19.2432 162.529 18.8558 162.396 18.5127C162.275 18.1585 162.042 17.8376 161.699 17.5498C161.356 17.251 160.875 16.9577 160.255 16.6699C159.635 16.3822 158.833 16.0833 157.848 15.7734C156.752 15.4193 155.712 15.0208 154.727 14.5781C153.753 14.1354 152.889 13.6208 152.137 13.0342C151.395 12.4365 150.809 11.7448 150.377 10.959C149.956 10.1732 149.746 9.26009 149.746 8.21973C149.746 7.21257 149.967 6.29948 150.41 5.48047C150.853 4.65039 151.473 3.94206 152.27 3.35547C153.066 2.75781 154.007 2.2985 155.092 1.97754C156.188 1.65658 157.388 1.49609 158.694 1.49609C160.476 1.49609 162.031 1.81706 163.359 2.45898C164.688 3.10091 165.717 3.98079 166.447 5.09863C167.189 6.21647 167.56 7.49479 167.56 8.93359H162.612C162.612 8.22526 162.463 7.60547 162.164 7.07422C161.876 6.5319 161.434 6.10579 160.836 5.7959C160.249 5.486 159.508 5.33105 158.611 5.33105C157.748 5.33105 157.029 5.46387 156.453 5.72949C155.878 5.98405 155.446 6.33268 155.158 6.77539C154.87 7.20703 154.727 7.69401 154.727 8.23633C154.727 8.64583 154.826 9.0166 155.025 9.34863C155.236 9.68066 155.546 9.99056 155.955 10.2783C156.365 10.5661 156.868 10.8372 157.466 11.0918C158.063 11.3464 158.755 11.5954 159.541 11.8389C160.858 12.2373 162.015 12.6855 163.011 13.1836C164.018 13.6816 164.859 14.2406 165.534 14.8604C166.209 15.4801 166.718 16.1829 167.062 16.9688C167.405 17.7546 167.576 18.6455 167.576 19.6416C167.576 20.693 167.371 21.6338 166.962 22.4639C166.552 23.2939 165.96 23.9967 165.186 24.5723C164.411 25.1478 163.487 25.585 162.413 25.8838C161.34 26.1826 160.139 26.332 158.811 26.332C157.615 26.332 156.437 26.1771 155.274 25.8672C154.112 25.5462 153.055 25.0648 152.104 24.4229C151.163 23.7809 150.41 22.9619 149.846 21.9658C149.281 20.9697 148.999 19.791 148.999 18.4297H153.996C153.996 19.1823 154.112 19.8187 154.345 20.3389C154.577 20.859 154.904 21.2796 155.324 21.6006C155.756 21.9215 156.265 22.154 156.852 22.2979C157.449 22.4417 158.102 22.5137 158.811 22.5137C159.674 22.5137 160.382 22.3919 160.936 22.1484C161.5 21.9049 161.915 21.5674 162.181 21.1357C162.457 20.7041 162.596 20.2171 162.596 19.6748ZM181.771 1.82812V26H176.807V1.82812H181.771ZM189.208 1.82812V5.72949H169.485V1.82812H189.208Z" fill="url(#paint0_linear_253_4)"/>
<defs>
<linearGradient id="paint0_linear_253_4" x1="95" y1="-6" x2="95" y2="34" gradientUnits="userSpaceOnUse">
<stop stop-color="#1053FF"/>
<stop offset="1" stop-color="#0F67CF"/>
</linearGradient>
</defs>
</svg>
